<svg width="320" height="320" viewBox="0 0 320 320" fill="none" xmlns="http://www.w3.org/2000/svg">
<circle cx="160" cy="160" r="155" fill="white"/>
<path d="M159.332 285.022C151.261 283.543 144.175 279.505 137.847 272.778C131.132 265.64 124.498 251.473 125.158 245.682L125.38 243.736L137.366 243.641C157.971 243.478 177.352 240.744 185.979 236.783C186.712 236.447 189.855 235.053 192.965 233.685C202.071 229.679 214.818 221.819 222.249 215.628C225.225 213.149 233.623 204.682 235.982 201.783C241.084 195.512 248.232 183.261 248.24 180.773C248.242 180.205 248.513 179.456 248.842 179.108C250.076 177.805 252.306 166.701 252.865 159.075C253.384 151.995 254.28 147.916 256.209 143.847C258.652 138.696 263.092 126.305 263.869 122.472C264.099 121.337 263.953 118.49 263.545 116.146C263.137 113.801 262.566 108.701 262.277 104.812C261.789 98.2642 261.576 97.4764 259.396 94.1572C256.457 89.6815 255.759 86.8151 257.246 85.328C257.841 84.7333 258.579 84.2467 258.886 84.2467C260.045 84.2467 267.293 87.1995 268.99 88.3626C269.962 89.0289 271.025 89.5742 271.352 89.5742C272.524 89.5742 280.985 95.5294 282.413 97.3598C283.214 98.3876 285.728 101.258 287.998 103.739C290.268 106.22 293.115 110.259 294.324 112.714C296.857 117.857 296.794 116.475 295.938 147.843C295.412 167.1 294.645 173.339 292.218 178.096C290.284 181.888 283.494 188.229 278.977 190.462C276.609 191.633 274.925 192.9 274.909 193.522C274.893 194.106 276.835 196.803 279.225 199.515C284.57 205.582 286.201 208.603 286.201 212.434C286.201 221.426 277.69 231.649 264.092 238.991C259.638 241.397 243.442 248.731 242.585 248.731C242.328 248.731 241.174 249.166 240.02 249.697C238.866 250.228 236.423 251.235 234.592 251.933C223.484 256.17 216.758 259.235 212.949 261.797C208.72 264.641 206.792 266.28 198.632 273.966C191.536 280.65 186.72 283.63 180.733 285.042C175.811 286.202 165.72 286.193 159.332 285.022V285.022ZM103.071 231.684C98.859 231.177 93.4894 230.16 91.1386 229.424C88.7878 228.689 86.5905 228.087 86.2558 228.087C83.4543 228.087 61.7092 216.115 56.6559 211.79C56.2165 211.414 53.4289 209.458 50.4613 207.443C32.6105 195.326 24.2128 188.04 21.0001 181.884C19.8095 179.602 19.5631 177.963 19.5331 172.126C19.4987 165.432 19.6143 164.836 22.0543 159.14C23.4608 155.857 24.9126 152.605 25.2804 151.913C25.6483 151.222 26.356 148.075 26.8532 144.921C29.5302 127.935 29.8441 126.898 36.2272 113.954C42.3261 101.587 49.3167 95.3888 58.1879 94.482C66.3529 93.6474 69.2846 96.2064 70.1121 104.89C70.5495 109.48 71.4138 113.402 74.027 122.653C74.5621 124.547 75.2876 126.645 75.6391 127.314C76.5122 128.977 78.5233 141.531 78.1813 143.184C77.2624 147.627 76.08 150.592 73.1252 155.863C66.7288 167.273 66.9977 170.953 74.8266 179.145C79.2902 183.815 84.388 190.038 86.9005 193.883C87.3463 194.565 89.8618 198.42 92.4905 202.449C101.025 215.529 107.542 222.535 115.724 227.425C123.266 231.932 122.832 231.568 121.359 232.144C119.394 232.912 111.657 232.717 103.071 231.684V231.684ZM151.684 230.73C142.332 229.626 129.369 224.072 122.445 218.204C118.755 215.077 114.615 209.271 111.448 202.782C104.303 188.141 99.8484 183.141 91.5168 180.411C86.6625 178.82 84.5813 177.154 83.677 174.135C82.5388 170.337 84.2856 166.229 89.0393 161.527C93.5501 157.066 95.0813 155.908 99.4029 153.691C103.5 151.589 112.149 150.891 118.531 152.146C122.336 152.894 138.812 158.027 142.028 159.466C144.343 160.502 155.008 163.977 164.669 166.844C172.455 169.154 175.255 169.668 181.65 169.961C188.777 170.288 189.678 170.185 194.636 168.474C203.375 165.458 211.828 160.175 217.477 154.201C220.156 151.367 226.929 141.029 226.938 139.759C226.94 139.444 227.411 138.287 227.985 137.188C228.559 136.089 230.064 131.151 231.331 126.214C232.597 121.276 233.903 116.967 234.233 116.636C236.112 114.758 238.256 127.082 238.249 139.712C238.241 153.668 235.904 165.275 230.58 177.793C229.548 180.22 221.212 194.017 220.311 194.791C220.098 194.974 218.595 196.772 216.971 198.786C212.768 204.001 205.192 211.63 201.295 214.569C199.464 215.951 197.816 217.236 197.633 217.425C195.104 220.036 183.85 225.836 177.032 228.042C167.692 231.063 160.743 231.801 151.684 230.73V230.73ZM186.561 156.412C185.783 156.238 184.46 155.367 183.623 154.475C182.225 152.987 182.166 152.636 182.9 150.186C183.71 147.484 185.319 145.716 199.516 131.939C210.189 121.581 213.23 115.228 213.262 103.215C213.28 96.583 213.137 95.6945 211.771 93.953C206.159 86.7966 192.545 82.8135 178.612 84.251C171.17 85.0188 165.721 87.5745 160.466 92.7611C154.244 98.903 151.943 105.108 153.603 111.265C154.562 114.817 160.291 120.318 165.825 122.998C169.419 124.74 170.536 124.969 174.358 124.753C177.934 124.551 179.476 124.072 182.606 122.189C190.448 117.474 194.303 112.142 194.303 106.016C194.303 95.8021 181.095 89.4468 170.917 94.7635C166.755 96.938 163.004 101.428 163.004 104.237C163.004 105.286 162.658 106.358 162.233 106.62C161.013 107.375 162.033 100.774 163.618 97.6684C165.334 94.3039 169.863 90.5835 173.39 89.6411C177.168 88.6315 186.052 88.5762 189.569 89.5404C192.778 90.4201 196.7 92.6965 198.371 94.6487C200.885 97.5873 201.599 103.104 200.19 108.701C198.878 113.912 193.796 122.721 189.678 126.924C188.621 128.003 183.313 134.035 178.487 139.642C177.01 141.358 174.809 144.144 173.597 145.832C171.981 148.082 170.227 149.471 167.032 151.03C163.004 152.995 162.189 153.151 156.345 153.078C151.851 153.021 148.572 152.559 145.024 151.481C129.821 146.861 122.723 139.799 124.138 130.699C124.782 126.56 135.002 106.005 139.122 100.562C142.813 95.6866 153.481 84.6332 156.345 82.7166C157.261 82.104 159.158 80.8415 160.562 79.911C164.609 77.2278 172.476 75.3459 177.645 75.8244C194.691 77.4023 201.401 78.9755 209.711 83.342C219.122 88.2873 224.369 95.0491 226.595 105.098C227.865 110.832 227.855 112.831 226.523 119.303C225.28 125.342 224.178 127.728 219.033 135.523C210.862 147.901 200.608 155.821 191.948 156.443C189.764 156.6 187.34 156.586 186.561 156.412V156.412ZM86.4569 129.809C85.3394 128.047 84.425 126.21 84.425 125.728C84.425 125.245 84.1393 124.33 83.7902 123.694C83.441 123.058 82.6692 120.14 82.0752 117.21C81.4811 114.28 80.5559 109.785 80.0193 107.221C76.6755 91.2462 75.6219 83.5985 75.5697 74.9237C75.5231 67.1727 75.7307 65.2913 77.0764 61.2722C79.9804 52.5985 82.6937 49.8344 90.8543 47.2359C94.3652 46.1179 98.1316 44.3149 100.648 42.5478C106.677 38.3127 110.328 36.3241 113.357 35.6244C117.811 34.5952 126.445 34.8708 131.766 36.2118C134.48 36.8959 140.147 37.6653 144.358 37.9217C152.434 38.4132 155.183 39.2081 155.559 41.161C156.17 44.332 143.317 49.966 130.11 52.3165C124.487 53.3172 117.217 55.569 114.41 57.1793C106.219 61.8784 99.7368 70.0809 94.3342 82.5819C90.7344 90.9113 88.9604 103.542 89.1688 119.36C89.2616 126.402 89.1465 132.355 88.9131 132.589C88.6797 132.822 87.5744 131.571 86.4569 129.809V129.809ZM245.154 131.361C242.784 128.677 240.548 119.175 238.926 104.89C237.451 91.895 233.51 84.6718 223.554 76.7118C214.854 69.756 204.777 65.2263 192.781 62.8799C176.06 59.609 160.814 63.366 147.651 74.0008C142.441 78.2104 133.611 88.1255 132.298 91.239C132.144 91.6052 131.276 93.1003 130.37 94.5614C129.464 96.0225 127.71 99.6185 126.472 102.553C124.279 107.751 123.87 108.974 121.172 118.416C119.631 123.806 117.975 125.77 114.039 126.872C110.361 127.901 108.076 127.344 106.576 125.052C105.6 123.561 105.409 121.792 105.442 114.574C105.506 100.752 108.898 89.7799 116.79 77.8707C123.647 67.5213 127.796 64.3665 148.687 53.6168C156.012 49.8475 163.671 45.6362 165.705 44.2584C171.521 40.321 173.748 39.6296 180.617 39.6296C185.465 39.6296 188.197 40.0507 193.688 41.6443C197.506 42.7525 205.124 44.8409 210.618 46.2853C223.329 49.6269 226.988 51.057 231.928 54.6138C242.787 62.4313 247.596 73.7078 249.681 96.2334C251.26 113.304 250.447 130.763 247.999 132.35C246.865 133.085 246.593 132.99 245.154 131.361ZM174.866 112.858C170.439 110.519 169.33 107.48 171.4 103.359C173.536 99.1091 176.782 97.758 178.604 100.36C179.54 101.697 179.515 102.017 178.309 104.061C176.643 106.886 176.632 108.648 178.277 109.529C180.151 110.532 184.081 110.372 186.345 109.202C188.811 107.927 188.871 108.767 186.478 111.05C182.961 114.406 178.973 115.027 174.866 112.858V112.858Z" fill="black"/>
</svg>
